<svg xmlns="http://www.w3.org/2000/svg" xmlns:xlink="http://www.w3.org/1999/xlink" version="1.1" x="0px" y="0px" viewBox="0 0 30 30" xml:space="preserve"><g transform="translate(-30 -321)"><path xmlns="http://www.w3.org/2000/svg" xmlns:xlink="http://www.w3.org/1999/xlink" d="M57.627,323.373c-1.952-1.953-5.118-1.953-7.07,0l-14.582,14.58l-3.803,3.805   c-1.953,1.953-1.953,5.119,0,7.07c1.952,1.953,5.118,1.953,7.07,0l4.243-4.242h-0.001l14.143-14.143   C59.58,328.492,59.58,325.326,57.627,323.373z M35,348c-1.105,0-2-0.897-2-2s0.896-2,2-2c1.104,0,2,0.895,2,2S36.104,348,35,348z    M42.232,344.424c-1.016-0.219-2.473-0.734-3.697-1.959c-1.225-1.225-1.74-2.682-1.959-3.697l12.586-12.586   c-0.222,1.51,0.232,3.1,1.394,4.262c1.162,1.162,2.752,1.617,4.262,1.395L42.232,344.424z M51.264,329.736   c-1.561-1.559-1.561-4.098,0-5.656c1.559-1.561,4.098-1.561,5.656,0c1.561,1.559,1.561,4.098,0,5.656   C55.361,331.297,52.822,331.297,51.264,329.736z"></path></g></svg>